<svg id="レイヤー_1" data-name="レイヤー 1" xmlns="http://www.w3.org/2000/svg" width="22" height="22" viewBox="0 0 22 22"><defs><style>.cls-1{fill:#333;}.cls-2{fill:#fff;}</style></defs><title>icon_question</title><path class="cls-1" d="M11,0A11,11,0,1,0,22,11,11,11,0,0,0,11,0Zm.7,17H9V15h2.7Zm2.36-6.71A6.66,6.66,0,0,1,11.51,12v1.72H9.16V11.25A6.68,6.68,0,0,0,11.49,10a2.07,2.07,0,0,0,.66-1.5c0-1-.67-1.57-2-1.57a5,5,0,0,0-2.66.86H7.23V5.64A10.19,10.19,0,0,1,10.7,5a4.81,4.81,0,0,1,3,.84,2.66,2.66,0,0,1,1.09,2.23A3.51,3.51,0,0,1,14.06,10.29Z"/><path class="cls-2" d="M11.7,17H9V15h2.7Zm2.36-6.71A6.66,6.66,0,0,1,11.51,12v1.72H9.16V11.25A6.68,6.68,0,0,0,11.49,10a2.07,2.07,0,0,0,.66-1.5c0-1-.67-1.57-2-1.57a5,5,0,0,0-2.66.86H7.23V5.64A10.19,10.19,0,0,1,10.7,5a4.81,4.81,0,0,1,3,.84,2.66,2.66,0,0,1,1.09,2.23A3.51,3.51,0,0,1,14.06,10.29Z"/></svg>