<svg xmlns="http://www.w3.org/2000/svg" xmlns:xlink="http://www.w3.org/1999/xlink" width="34.268" height="35" viewBox="0 0 34.268 35">
  <defs>
    <clipPath id="clip-path">
      <rect id="長方形_2693" data-name="長方形 2693" width="34.268" height="35" fill="none"/>
    </clipPath>
  </defs>
  <g id="アートワーク_98" data-name="アートワーク 98" transform="translate(17.134 17.5)">
    <g id="アートワーク_98-2" data-name="アートワーク 98" transform="translate(-17.134 -17.5)" clip-path="url(#clip-path)">
      <path id="パス_91067" data-name="パス 91067" d="M19.681,0A14.6,14.6,0,0,0,7.6,22.753l-6.6,6.6a3.308,3.308,0,0,0,4.678,4.678l6.773-6.773A14.583,14.583,0,1,0,19.681,0m0,6.032a8.406,8.406,0,0,1,8.276,7.6H23.639a4.064,4.064,0,0,0-7.916,0H11.405a8.422,8.422,0,0,1,8.276-7.6m2.752,8.551a2.752,2.752,0,1,1-.169-.952,2.752,2.752,0,0,1,.169.952m-2.752,8.551a8.411,8.411,0,0,1-8.255-7.387h4.36a4.064,4.064,0,0,0,7.81,0h4.339a8.411,8.411,0,0,1-8.255,7.387" transform="translate(-0.018)" fill="#fff"/>
    </g>
  </g>
</svg>
