<svg id="レイヤー_1" data-name="レイヤー 1" xmlns="http://www.w3.org/2000/svg" width="86" height="86" viewBox="0 0 86 86"><defs><style>.cls-1,.cls-2{fill:#fff;}.cls-2{fill-rule:evenodd;}.cls-3{fill:#d9d9d9;}.cls-4{fill:#333;}</style></defs><title>icon_top</title><path class="cls-1" d="M43,86A43,43,0,1,1,85.76,43,42.93,42.93,0,0,1,43,86Z"/><path class="cls-2" d="M43,2.53A40.47,40.47,0,1,0,83.23,43,40.35,40.35,0,0,0,43,2.53Z"/><path class="cls-3" d="M43,6.53A36.47,36.47,0,1,1,6.77,43,36.39,36.39,0,0,1,43,6.53m0-4A40.47,40.47,0,1,0,83.23,43,40.35,40.35,0,0,0,43,2.53Z"/><path class="cls-4" d="M54.06,41.4A1.49,1.49,0,0,1,53,41L43,31,33,41a1.5,1.5,0,1,1-2.12-2.12L41.94,27.78a1.55,1.55,0,0,1,2.12,0L55.12,38.84a1.5,1.5,0,0,1-1.06,2.56Z"/><path class="cls-4" d="M29.8,51.71H37v1.57h-2.7v6.63H32.51V53.28H29.8Z"/><path class="cls-4" d="M46.83,57.48c0,1.71-.67,2.39-2.23,2.43H41.16a2.17,2.17,0,0,1-1.59-.67,2.86,2.86,0,0,1-.44-1.74V54.34c.06-1.93.79-2.64,2.66-2.63h2.37c2,0,2.66.7,2.67,2.6Zm-3,.85c1,0,1.15-.18,1.16-1.26V54.66c0-1-.3-1.4-1.28-1.38H42.18c-1,0-1.19.26-1.21,1.42v2.42c0,1,.1,1.2,1,1.21Z"/><path class="cls-4" d="M54.28,51.71c1.48,0,2.14.59,2.16,2v2c0,1.18-.74,1.77-2.18,1.78H51v2.42H49.23v-8.2ZM53.7,55.9c.74,0,.91-.15.92-.78v-.91c0-.68-.31-.92-1.16-.93H51V55.9Z"/></svg>